<svg width="14" height="16" viewBox="0 0 14 16" fill="none" xmlns="http://www.w3.org/2000/svg">
<path d="M5.77888 4.36019L4.55777 3.66019C4.96221 3.02241 5.52999 2.55575 6.17555 2.32241C6.12752 2.16565 6.03071 2.0283 5.89921 1.93038C5.76771 1.83245 5.60839 1.77906 5.44444 1.77797V0.222412C6.04333 0.222412 6.58777 0.447968 6.99999 0.821301V1.77797C7.34999 1.77797 7.62999 2.0113 7.7311 2.32241C6.86777 2.61797 6.16777 3.37241 5.77888 4.36019ZM5.44444 7.22241C5.44444 6.62352 5.62333 6.05575 5.9111 5.59686L4.86888 5.00574C4.27777 5.2313 3.88888 5.7913 3.88888 6.44463V7.22241C3.88888 12.7057 7.69999 14.8446 9.35666 15.5135C7.31888 13.9269 5.44444 11.2669 5.44444 7.22241ZM2.66777 4.36019L1.44666 3.66019C1.8511 3.02241 2.41888 2.55575 3.06444 2.32241C3.01641 2.16565 2.9196 2.0283 2.7881 1.93038C2.6566 1.83245 2.49728 1.77906 2.33333 1.77797V0.222412C2.93222 0.222412 3.47666 0.447968 3.88888 0.821301V1.77797C4.23888 1.77797 4.51888 2.0113 4.61999 2.32241C3.75666 2.61797 3.05666 3.37241 2.66777 4.36019ZM2.33333 7.22241C2.33333 6.62352 2.51222 6.05575 2.79999 5.59686L1.75777 5.00574C1.16666 5.2313 0.777771 5.7913 0.777771 6.44463V7.22241C0.777771 12.7057 4.58888 14.8446 6.24555 15.5135C4.20777 13.9269 2.33333 11.2669 2.33333 7.22241ZM12.4444 5.10686L11.4722 5.66686L10.1111 4.88908L8.74999 5.66686L7.77777 5.10686C7.3111 5.37908 6.99999 5.87686 6.99999 6.44463V7.22241C6.99999 14.2224 13.2222 15.778 13.2222 15.778V6.44463C13.2222 5.87686 12.9111 5.37908 12.4444 5.10686ZM7.56777 3.82352L8.74999 4.50019L10.1111 3.72241L11.4722 4.50019L12.6544 3.82352C12.2267 3.06908 11.5967 2.50908 10.8655 2.28352C10.7997 1.71672 10.5281 1.19381 10.1023 0.81391C9.67653 0.434013 9.12616 0.223546 8.55555 0.222412V1.77797C8.89777 1.77797 9.17777 2.00352 9.28666 2.31463C8.57888 2.55575 7.97999 3.10019 7.56777 3.82352Z" fill="white"/>
</svg>
