<svg width="12" height="11" viewBox="0 0 12 11" fill="none" xmlns="http://www.w3.org/2000/svg">
<path d="M7.75 4.45342C6.30917 5.9625 4.86775 9.66667 4.86775 9.66667C4.86775 9.66667 2.80858 4.45342 0.75 3.25" stroke="white" stroke-width="1.5" stroke-linecap="round" stroke-linejoin="round"/>
<path d="M10.9559 1.25333L11.2044 3.83399C11.3654 5.50816 10.1107 6.99858 8.43652 7.16016C6.79385 7.31766 5.30577 6.11716 5.14769 4.47449C5.10987 4.08385 5.14942 3.68959 5.26407 3.31424C5.37872 2.93889 5.56622 2.58981 5.81586 2.28698C6.0655 1.98414 6.37238 1.73347 6.71896 1.5493C7.06553 1.36513 7.44501 1.25108 7.83569 1.21366L10.5867 0.948826C10.6309 0.944562 10.6756 0.949057 10.7181 0.962054C10.7606 0.97505 10.8001 0.996295 10.8344 1.02457C10.8687 1.05285 10.8971 1.08761 10.9179 1.12686C10.9388 1.16611 10.9517 1.20908 10.9559 1.25333Z" stroke="white" stroke-width="1.5" stroke-linecap="round" stroke-linejoin="round"/>
</svg>
