<svg width="36" height="36" viewBox="0 0 36 36" fill="none" xmlns="http://www.w3.org/2000/svg">
<path d="M18 0.0996094C22.8965 0.0996094 23.5056 0.100207 25.4102 0.208008H25.4141C26.8982 0.238764 28.3664 0.522982 29.7549 1.04785H29.7559C30.9468 1.48218 32.0235 2.18204 32.9043 3.09375L32.9062 3.0957C33.815 3.98218 34.5192 5.05631 34.9697 6.24316V6.24414C35.4153 7.4628 35.684 8.7383 35.7676 10.0312L35.792 10.5859V10.5898C35.8998 12.4944 35.9004 13.1035 35.9004 18C35.9004 20.4472 35.8727 21.8236 35.8457 22.8262C35.8255 23.5776 35.8058 24.1211 35.7969 24.749L35.792 25.416C35.7611 26.7125 35.545 27.9971 35.1504 29.2305L34.9697 29.7559C34.5219 30.9444 33.8174 32.0195 32.9062 32.9043L32.9043 32.9062C32.0235 33.818 30.9468 34.5178 29.7559 34.9521H29.7549C28.5399 35.4114 27.2639 35.6864 25.9697 35.7686L25.4141 35.792H25.4102C23.5056 35.8998 22.8965 35.9004 18 35.9004C13.1035 35.9004 12.4944 35.8998 10.5898 35.792H10.5859C9.28728 35.7651 8.00106 35.5441 6.76953 35.1377L6.24512 34.9521C5.05664 34.5123 3.98058 33.8134 3.0957 32.9062L3.09375 32.9043L2.76172 32.5645C2.01118 31.7521 1.42786 30.7979 1.04785 29.7559V29.7549L0.862305 29.2305C0.513934 28.1749 0.301845 27.0791 0.231445 25.9697L0.208008 25.4141V25.4102L0.145508 24.1377C0.100011 22.9333 0.0996094 21.6726 0.0996094 18C0.0996094 13.1035 0.100207 12.4944 0.208008 10.5898V10.5859C0.238764 9.10184 0.522982 7.63364 1.04785 6.24512V6.24414C1.48218 5.05321 2.18204 3.97647 3.09375 3.0957L3.0957 3.09375C3.87003 2.2999 4.79041 1.66548 5.80469 1.22461L6.24512 1.04785C7.46007 0.588592 8.73609 0.313573 10.0303 0.231445L10.5859 0.208008H10.5898C12.4944 0.100207 13.1035 0.0996094 18 0.0996094ZM18 3.13965C15.6321 3.13965 14.2811 3.16731 13.2969 3.19434C12.3123 3.22137 11.6979 3.24805 10.7998 3.24805H10.7988C9.62112 3.25627 8.45316 3.46546 7.3457 3.86621L7.34082 3.86816C6.57075 4.20068 5.88339 4.69961 5.3291 5.3291C4.70125 5.88142 4.20766 6.56997 3.88574 7.3418L3.88477 7.34473C3.52228 8.31152 3.3121 9.32796 3.26074 10.3574L3.24805 10.7998C3.14018 12.599 3.13965 13.2718 3.13965 18C3.13965 20.3679 3.16731 21.7189 3.19434 22.7031C3.22137 23.6877 3.24805 24.3021 3.24805 25.2002V25.2031C3.28364 26.3868 3.52957 27.5546 3.97363 28.6523V28.6533C4.25709 29.45 4.72096 30.1703 5.32812 30.7588V30.7598C5.89899 31.3493 6.58443 31.8158 7.3418 32.1318V32.1328L7.34766 32.1348C8.48018 32.5182 9.67077 32.7013 10.8662 32.6787V32.6797C12.6696 32.7879 13.3392 32.7881 18.0723 32.7881C22.8063 32.7881 23.4747 32.7698 25.2773 32.6797L25.2764 32.6787C26.4292 32.6655 27.5714 32.4573 28.6543 32.0615H28.6553C29.4484 31.7615 30.1664 31.2923 30.7607 30.6875C31.3717 30.0985 31.8415 29.3787 32.1338 28.582C32.5295 27.4994 32.7386 26.3576 32.752 25.2051C32.8421 23.4024 32.8604 22.7343 32.8604 18C32.8604 13.2699 32.8419 12.5988 32.752 10.7998L32.7402 10.3584C32.6916 9.3301 32.4876 8.31424 32.1338 7.3457L32.1328 7.34277L32.0098 7.06055C31.7497 6.50266 31.4009 5.99082 30.9766 5.54492L30.7588 5.32715C30.1591 4.67522 29.4135 4.17447 28.583 3.86621H28.582C27.4994 3.47053 26.3576 3.26136 25.2051 3.24805H25.2061C23.4025 3.13983 22.7332 3.13965 18 3.13965ZM18 8.86621C19.2016 8.86151 20.3926 9.09462 21.5039 9.55176C22.6151 10.0088 23.6251 10.6806 24.4756 11.5293C25.326 12.3781 26.0007 13.3868 26.46 14.4971C26.9193 15.6075 27.1547 16.7984 27.1523 18C27.1523 19.8056 26.6169 21.5707 25.6143 23.0723C24.6114 24.5739 23.1855 25.7447 21.5176 26.4365C19.8496 27.1284 18.0135 27.311 16.2422 26.96C14.471 26.6089 12.8435 25.7404 11.5654 24.4648C10.2874 23.1893 9.41597 21.5635 9.06152 19.793C8.70708 18.0223 8.88562 16.1859 9.57422 14.5166C10.2628 12.8474 11.431 11.4198 12.9307 10.4141C14.4303 9.40835 16.1943 8.86977 18 8.86621ZM20.332 12.3701C19.2186 11.9089 17.9935 11.7884 16.8115 12.0234C15.6294 12.2586 14.5427 12.8382 13.6904 13.6904C12.8382 14.5427 12.2586 15.6294 12.0234 16.8115C11.7884 17.9935 11.9089 19.2186 12.3701 20.332C12.8314 21.4455 13.6121 22.3978 14.6143 23.0674C15.6164 23.7369 16.7948 24.0938 18 24.0938C18.8003 24.0938 19.5927 23.9361 20.332 23.6299C21.0714 23.3236 21.7437 22.8754 22.3096 22.3096C22.8754 21.7437 23.3236 21.0714 23.6299 20.332C23.9361 19.5927 24.0938 18.8003 24.0938 18C24.0938 16.7948 23.7369 15.6164 23.0674 14.6143C22.3978 13.6121 21.4455 12.8314 20.332 12.3701ZM27.6123 6.32812C28.1585 6.32821 28.6821 6.54539 29.0684 6.93164C29.4546 7.31789 29.6718 7.84146 29.6719 8.3877C29.6719 8.79499 29.5514 9.19353 29.3252 9.53223C29.0989 9.87096 28.7768 10.1351 28.4004 10.291C28.024 10.4469 27.6096 10.4877 27.21 10.4082C26.8104 10.3287 26.4433 10.1328 26.1553 9.84473C25.8672 9.55668 25.6713 9.18957 25.5918 8.79004C25.5123 8.39044 25.5531 7.97603 25.709 7.59961C25.8649 7.22324 26.129 6.90114 26.4678 6.6748C26.8065 6.4486 27.205 6.32812 27.6123 6.32812Z" fill="white" stroke="#961515" stroke-width="0.2"/>
</svg>
