<svg width="36" height="36" viewBox="0 0 36 36" fill="none" xmlns="http://www.w3.org/2000/svg">
<g clip-path="url(#clip0_117_816)">
<path d="M17.9863 0.100586H17.9873C20.3188 0.091881 22.6287 0.547074 24.7822 1.44043C26.9359 2.33386 28.8905 3.64707 30.5312 5.30371V5.30469C32.1838 6.94886 33.4928 8.90362 34.3867 11.0566C35.2806 13.2096 35.7403 15.5184 35.7383 17.8496C35.7292 27.6314 27.7677 35.5918 17.9951 35.5918H17.9863C15.0236 35.5942 12.1077 34.8516 9.50684 33.4326L9.47168 33.4141L9.43359 33.4238L0.141602 35.8594L2.61914 26.7812L2.62988 26.7412L2.60938 26.7051C1.06332 24.009 0.244204 20.9641 0.244141 17.834C0.25309 8.06119 8.21589 0.100682 17.9863 0.100586ZM17.9951 2.91016C9.76376 2.91037 3.06565 9.61075 3.06543 17.8242C3.06043 20.4576 3.75613 23.0416 5.0752 25.3135L5.34668 25.7637L5.67383 26.291L4.1875 31.7236L4.1416 31.8906L4.30957 31.8467L9.87891 30.3857L10.3838 30.6885H10.3848C12.6866 32.0506 15.3117 32.7703 17.9863 32.7725C26.2112 32.7725 32.9097 26.0835 32.9189 17.8408C32.9234 15.8802 32.5396 13.9377 31.79 12.126C31.0405 10.3143 29.9391 8.66857 28.5508 7.28418C27.1672 5.89499 25.5222 4.7936 23.7109 4.04297C21.8992 3.29223 19.9562 2.90664 17.9951 2.91016ZM11.6768 9.69629C11.9763 9.69629 12.272 9.69641 12.5244 9.71191H12.6387C12.6757 9.71138 12.7113 9.71113 12.7471 9.71289C12.8175 9.71636 12.8863 9.72799 12.9561 9.76074C13.0945 9.82585 13.2637 9.98774 13.4395 10.415V10.416C13.627 10.8586 13.9432 11.6288 14.2266 12.3174C14.3675 12.6598 14.5007 12.9844 14.6064 13.2373L14.8193 13.7295C14.9225 13.9381 14.9791 14.1593 14.8525 14.4209C14.7041 14.7224 14.6359 14.8975 14.4219 15.1416L14.4209 15.1426C14.2482 15.3415 14.0714 15.5671 13.9121 15.75L13.7598 15.916C13.6513 16.0244 13.5206 16.1546 13.458 16.3213C13.3919 16.4977 13.4059 16.7003 13.5459 16.9434L13.5469 16.9443C13.7965 17.3611 14.5988 18.6825 15.8018 19.8281L16.0479 20.0547C17.7616 21.5893 19.2188 22.0656 19.6514 22.2852L19.6523 22.2861C19.8814 22.3995 20.0802 22.4561 20.2627 22.4346C20.4498 22.4124 20.6009 22.3099 20.7393 22.1484C20.9965 21.8572 21.8539 20.8455 22.1572 20.3965L22.1582 20.3945C22.2934 20.1887 22.4185 20.1204 22.543 20.1064C22.6788 20.0913 22.8343 20.1368 23.042 20.2109C23.243 20.2858 23.8869 20.5909 24.543 20.9082C25.1966 21.2243 25.854 21.549 26.0752 21.6602C26.304 21.7746 26.4823 21.8545 26.625 21.9326C26.7672 22.0105 26.8483 22.0743 26.8887 22.1436L26.8896 22.1445C26.9047 22.1696 26.9246 22.2396 26.9346 22.3643C26.9441 22.4837 26.9434 22.64 26.9277 22.8242C26.9042 23.1002 26.8476 23.4363 26.7441 23.8037L26.624 24.1816C26.4474 24.67 25.9326 25.1525 25.3389 25.5332C24.8213 25.865 24.2629 26.1078 23.8574 26.2051L23.6934 26.2373C22.9316 26.3464 21.9836 26.3968 20.9355 26.0615C20.2865 25.8549 19.4571 25.5832 18.4043 25.124L17.9922 24.9365C13.7803 22.9265 11.0513 18.7211 10.833 18.4248V18.4238L10.6914 18.2314C10.4976 17.9619 10.1643 17.4699 9.84668 16.8457C9.42252 16.0119 9.03037 14.9505 9.03027 13.874C9.03027 11.7173 10.15 10.6642 10.5586 10.2197L10.5596 10.2178C10.6999 10.0586 10.8722 9.93061 11.0645 9.84082C11.2565 9.75116 11.4649 9.70182 11.6768 9.69629Z" fill="white" stroke="#961515" stroke-width="0.2"/>
</g>
<defs>
<clipPath id="clip0_117_816">
<rect width="36" height="36" fill="white"/>
</clipPath>
</defs>
</svg>
