<svg width="16" height="20" viewBox="0 0 16 20" fill="none" xmlns="http://www.w3.org/2000/svg">
<path d="M8 10.8334C9.38071 10.8334 10.5 9.71409 10.5 8.33337C10.5 6.95266 9.38071 5.83337 8 5.83337C6.61929 5.83337 5.5 6.95266 5.5 8.33337C5.5 9.71409 6.61929 10.8334 8 10.8334Z" stroke="black" stroke-width="1.5" stroke-linecap="round" stroke-linejoin="round"/>
<path d="M8.00001 1.66669C6.2319 1.66669 4.53621 2.36907 3.28596 3.61931C2.03572 4.86955 1.33334 6.56524 1.33334 8.33335C1.33334 9.91002 1.66834 10.9417 2.58334 12.0834L8.00001 18.3334L13.4167 12.0834C14.3317 10.9417 14.6667 9.91002 14.6667 8.33335C14.6667 6.56524 13.9643 4.86955 12.7141 3.61931C11.4638 2.36907 9.76812 1.66669 8.00001 1.66669Z" stroke="black" stroke-width="1.5" stroke-linecap="round" stroke-linejoin="round"/>
</svg>
