<svg width="20" height="20" viewBox="0 0 20 20" fill="none" xmlns="http://www.w3.org/2000/svg">
<path d="M16.5625 13.6375V17.3875C12.9737 17.012 9.65136 15.3197 7.2375 12.6375C4.80674 9.93433 3.46985 6.42277 3.4875 2.78748V1.82498L7 1.82498L8.1 4.99998L6.325 6.04998L5 6.78748L5.775 8.12498C7.16502 10.5197 9.09021 12.5604 11.4 14.0875L12.8375 15L13.6375 13.475L14.2875 12.225L16.5625 13.5875M18.125 13.5875C18.123 13.3179 18.0518 13.0534 17.9183 12.8192C17.7848 12.585 17.5934 12.389 17.3625 12.25L15.0875 10.9375C14.9057 10.8262 14.7028 10.7535 14.4917 10.7242C14.2805 10.6948 14.0655 10.7093 13.8602 10.7668C13.6549 10.8243 13.4637 10.9235 13.2984 11.0583C13.1332 11.193 12.9976 11.3604 12.9 11.55L12.25 12.8C10.1428 11.4045 8.38843 9.53887 7.125 7.34998L8.8875 6.24998C9.10936 6.12125 9.29611 5.93987 9.43127 5.72187C9.56643 5.50387 9.64584 5.25595 9.6625 4.99998C9.66339 4.82536 9.63378 4.65192 9.575 4.48748L8.475 1.24998C8.35836 0.955176 8.1548 0.702825 7.89134 0.526445C7.62789 0.350066 7.31701 0.258003 7 0.262485L3.4375 0.262485C3.0231 0.262485 2.62567 0.427105 2.33265 0.72013C2.03962 1.01316 1.875 1.41058 1.875 1.82498V2.76248C1.87393 6.77433 3.35696 10.6448 6.03857 13.6287C8.72019 16.6126 12.4108 18.4991 16.4 18.925C16.618 18.9458 16.838 18.921 17.0459 18.852C17.2538 18.7831 17.445 18.6715 17.6074 18.5245C17.7697 18.3774 17.8996 18.1981 17.9887 17.9981C18.0778 17.798 18.1243 17.5815 18.125 17.3625V13.5875Z" fill="black"/>
</svg>
